<?xml version="1.0" encoding="UTF-8"?>
<svg id="Layer_1" data-name="Layer 1" xmlns="http://www.w3.org/2000/svg" viewBox="0 0 209.54 209.54">
  <defs>
    <style>
      .cls-1 {
        stroke-width: 0px;
      }
    </style>
  </defs>
  <path class="cls-1" d="M143.52,148.55c-3.75-13.76-10.97-25.49-21.19-35.39-.29-.28-.83-.42-1.25-.42-17.63-.02-35.25-.02-52.87,0-.5,0-1.13.24-1.49.59-9.94,9.6-16.89,21.01-20.79,34.28-3.03,10.33-.56,19.3,6.74,27.04,4.13,4.38,9.08,7.57,14.55,10.01.38.17.76.35,1.16.55-.23.39-.39.67-.57.96-2.6,4.29-5.21,8.58-7.81,12.88-1.36,2.26-1.01,4.29,1,5.96.06.04.09.1.15.2h67.01c2.43-2.47,2.55-3.91.72-6.9-2.34-3.83-4.68-7.65-7.01-11.48-.33-.54-.65-1.09-.97-1.63.1-.08.14-.13.2-.15.3-.14.61-.28.91-.41,4.81-2.15,9.25-4.87,13.06-8.52,7.94-7.6,11.41-16.64,8.43-27.56ZM71.53,158.59c1.43,1.22,3.16,2.12,4.78,3.1.37.22.89.25,1.35.28,1,.06,2.02-.03,3,.12,2.22.34,3.69,2.26,3.49,4.42-.2,2.26-1.93,3.85-4.22,3.87-.63,0-1.27,0-1.91,0-2.29.39-4.26-.5-6.21-1.54-3.31-1.77-6.3-3.92-8.63-6.91-2.02-2.59-2.68-5.44-1.94-8.67,1.37-5.99,4.06-11.38,7.24-16.56,2.39-3.89,5.15-7.51,8.41-10.71,2.22-2.18,5.63-1.62,6.88,1.09.77,1.65.37,3.48-1,4.87-5.96,6.08-10.24,13.2-12.86,21.28-1.04,3.22-1.1,3.07,1.6,5.37Z"/>
  <path class="cls-1" d="M163.97,4.34c.3,0,.6.13.9.19"/>
  <path class="cls-1" d="M96.58,4.53c1.22.73,1.8,1.88,2.4,3.03,3.46,6.61,7.44,12.87,12.8,18.14.95.94,1.97,1.82,3.02,2.65,1.4,1.12,2.11,2.53,1.79,4.31-.33,1.78-1.48,2.86-3.2,3.37-9.18,2.75-18.51,3.64-27.99,2.08-3.09-.51-6.14-1.33-9.2-2.04-1.82-.42-3.05-1.51-3.41-3.4-.36-1.85.41-3.23,1.83-4.37,5.56-4.44,9.62-10.12,13.21-16.16.97-1.64,1.8-3.37,2.78-5,.57-.94,1.31-1.77,1.96-2.63"/>
  <path class="cls-1" d="M109.83,45.59c0,2.69-.03,5.26.02,7.84.01.59.21,1.25.53,1.74,4.42,6.68,4.39,14.66-.12,21.32-.2.29-.42.65-.42.98-.03,3.78-.02,7.56-.02,11.49.8.05,1.55.14,2.3.13,2.08-.03,4.15-.12,6.23-.14.63,0,1.27.07,1.89.21.92.21,1.42.83,1.42,1.8.01,2.11.06,4.22.04,6.33-.03,2.31-.64,2.89-2.95,2.89-16.14,0-32.28,0-48.43,0-2.04,0-2.71-.62-2.75-2.69-.04-2.17,0-4.35.02-6.53,0-.91.47-1.53,1.34-1.79.48-.14.98-.23,1.48-.23,1.57,0,3.15.07,4.72.09,1.4.02,2.8,0,4.31,0,0-1.56,0-2.99,0-4.42,0-2.28.03-4.56-.02-6.83,0-.5-.17-1.06-.44-1.48-4.33-6.58-4.33-14.53-.01-21.09.32-.49.5-1.16.51-1.75.05-2.57.02-5.14.02-7.88,5.08,1.08,10.12,1.67,15.2,1.66,5.06,0,10.07-.57,15.12-1.66Z"/>
</svg>